#!OML:ASF H:\Dans Jumps\Project 1\Capture day 1\Session 1\subject.ASF
:FULLY-SPECIFIED
:DEGREES
136
root 0.259278 13.456 -15.5104 29.3307 1.52521 -1.61023
lowerback 30.6239 0.622998 -1.50434
upperback 3.43401 0.813506 3.71067
thorax -12.3218 0.50627 4.49748
lowerneck -24.087 1.28635 -0.26524
upperneck 10.2797 2.4624 -3.93209
head 7.07361 0.780421 -0.949247
rclavicle 3.57812e-015 -1.51076e-014
rhumerus -35.7623 -16.8303 -69.0843
rradius 24.4381
rwrist 31.3723
rhand -19.9068 -25.265
rfingers 7.12502
rthumb 6.42976 -55.1474
lclavicle 3.57812e-015 -1.51076e-014
lhumerus -33.3573 6.60072 77.6795
lradius 13.8499
lwrist 1.87159
lhand -25.1213 -5.37041
lfingers 7.12502
lthumb 1.39441 24.6048
rfemur -83.5879 -1.50776 22.4776
rtibia 90.6581
rfoot -33.6077 -17.0879
rtoes 1.31311
lfemur -82.8418 5.08629 -20.2279
ltibia 90.0687
lfoot -31.2757 18.402
ltoes -7.43872
137
root 0.257734 13.5546 -15.4183 29.2775 1.51681 -1.55059
lowerback 30.2178 0.643444 -1.55785
upperback 3.29967 0.821777 3.67963
thorax -12.2979 0.515143 4.49189
lowerneck -24.1668 1.24759 -0.319558
upperneck 10.5172 2.41179 -3.7741
head 7.16054 0.764288 -0.894706
rclavicle 4.77083e-015 3.18055e-014
rhumerus -33.72 -16.3293 -69.9858
rradius 25.4354
rwrist 30.3311
rhand -20.199 -25.4764
rfingers 7.12502
rthumb 6.14766 -55.3672
lclavicle 4.77083e-015 3.18055e-014
lhumerus -31.3329 5.57488 78.4027
lradius 15.0755
lwrist 4.11097
lhand -25.4055 -5.18548
lfingers 7.12502
lthumb 1.11991 24.7913
rfemur -82.5013 -1.5729 22.4049
rtibia 89.7152
rfoot -33.4745 -17.1158
rtoes 0.700841
lfemur -81.6956 4.96138 -20.1166
ltibia 89.0821
lfoot -31.1683 18.4895
ltoes -8.05989
138
root 0.255954 13.6582 -15.3217 29.1663 1.501 -1.51089
lowerback 29.8018 0.668032 -1.60921
upperback 3.1614 0.836025 3.64491
thorax -12.2727 0.526569 4.47914
lowerneck -24.2427 1.20088 -0.388109
upperneck 10.8489 2.35147 -3.57777
head 7.27763 0.7454 -0.826357
rclavicle -3.97569e-015 -3.18055e-014
rhumerus -31.7384 -15.748 -70.8667
rradius 26.5224
rwrist 29.3811
rhand -20.4008 -25.6686
rfingers 7.12502
rthumb 5.95288 -55.565
lclavicle -3.97569e-015 -3.18055e-014
lhumerus -29.4327 4.45213 79.0569
lradius 16.5022
lwrist 6.37438
lhand -25.967 -5.17241
lfingers 7.12502
lthumb 0.57759 24.8066
rfemur -81.2983 -1.64147 22.3537
rtibia 88.706
rfoot -33.3369 -17.1057
rtoes -0.00706676
lfemur -80.4411 4.88051 -20.0002
ltibia 88.0344
lfoot -31.0389 18.5625
ltoes -8.79901
139
root 0.254018 13.7668 -15.2208 28.9984 1.48358 -1.49331
lowerback 29.3759 0.691801 -1.65072
upperback 3.01749 0.852867 3.60955
thorax -12.2478 0.538781 4.45962
lowerneck -24.3021 1.15272 -0.45821
upperneck 11.2708 2.29004 -3.37172
head 7.42269 0.725932 -0.75457
rclavicle 4.37326e-015 3.37934e-015
rhumerus -29.8453 -15.0571 -71.7265
rradius 27.7153
rwrist 28.5076
rhand -20.5648 -25.8589
rfingers 7.12502
rthumb 5.79454 -55.7597
lclavicle 4.37326e-015 3.37934e-015
lhumerus -27.6715 3.22732 79.6413
lradius 18.1181
lwrist 8.59826
lhand -26.7302 -5.33523
lfingers 7.12502
lthumb -0.159544 24.6445
rfemur -79.9791 -1.71812 22.329
rtibia 87.6268
rfoot -33.2039 -17.05
rtoes -0.766474
lfemur -79.0808 4.84644 -19.8792
ltibia 86.9228
lfoot -30.8957 18.6135
ltoes -9.62074
140
root 0.251958 13.8806 -15.1154 28.7697 1.47098 -1.49123
lowerback 28.8836 0.710999 -1.68544
upperback 3.20411 0.861249 3.4207
thorax -12.5058 0.588163 4.5932
lowerneck -24.3386 1.11055 -0.512964
upperneck 11.7864 2.23712 -3.18776
head 7.59698 0.708127 -0.69136
rclavicle 9.93923e-015 -7.15625e-015
rhumerus -28.0725 -14.2509 -72.5506
rradius 29.0109
rwrist 27.6815
rhand -20.7116 -26.0128
rfingers 7.12502
rthumb 5.65277 -55.9174
lclavicle 9.93923e-015 -7.15625e-015
lhumerus -26.0526 1.85061 80.1763
lradius 19.8703
lwrist 10.8372
lhand -27.6819 -5.75187
lfingers 7.12502
lthumb -1.07871 24.2251
rfemur -78.5343 -1.8119 22.329
rtibia 86.471
rfoot -33.0688 -16.9691
rtoes -1.60713
lfemur -77.605 4.85248 -19.7577
ltibia 85.7389
lfoot -30.7555 18.6308
ltoes -10.4587
141
root 0.249906 14.0012 -15.005 28.4743 1.46915 -1.49702
lowerback 28.4589 0.722941 -1.70458
upperback 3.03815 0.871965 3.39778
thorax -12.4794 0.595729 4.56974
lowerneck -24.3512 1.08053 -0.548523
upperneck 12.3822 2.20218 -3.04221
head 7.7965 0.695197 -0.641585
rclavicle 1.98785e-015 8.34896e-015
rhumerus -26.4271 -13.3013 -73.3384
rradius 30.41
rwrist 26.8131
rhand -20.8617 -26.1235
rfingers 7.12502
rthumb 5.50784 -56.032
lclavicle 1.98785e-015 8.34896e-015
lhumerus -24.5534 0.359695 80.6541
lradius 21.7089
lwrist 13.0924
lhand -28.5919 -6.20898
lfingers 7.12502
lthumb -1.95757 23.7618
rfemur -76.9465 -1.92968 22.348
rtibia 85.2264
rfoot -32.9244 -16.8802
rtoes -2.47708
lfemur -75.9947 4.8885 -19.6395
ltibia 84.4671
lfoot -30.6186 18.6116
ltoes -11.2638
142
root 0.247774 14.1289 -14.8895 28.1149 1.48429 -1.49971
lowerback 28.0264 0.724188 -1.72048
upperback 2.87675 0.871261 3.38323
thorax -12.4411 0.597965 4.55837
lowerneck -24.3119 1.06274 -0.571666
upperneck 13.0204 2.18542 -2.93111
head 8.00394 0.6881 -0.602892
rclavicle -1.59028e-015 -1.66979e-014
rhumerus -24.9012 -12.2117 -74.086
rradius 31.8756
rwrist 25.8554
rhand -21.0735 -26.1856
rfingers 7.12502
rthumb 5.30337 -56.0992
lclavicle -1.59028e-015 -1.66979e-014
lhumerus -23.1454 -1.2018 81.0663
lradius 23.5712
lwrist 15.3622
lhand -29.3321 -6.58158
lfingers 7.12502
lthumb -2.67242 23.3814
rfemur -75.2153 -2.0789 22.3793
rtibia 83.8847
rfoot -32.7685 -16.788
rtoes -3.3175
lfemur -74.2478 4.9419 -19.5305
ltibia 83.094
lfoot -30.4752 18.5482
ltoes -11.9945
143
root 0.245449 14.2653 -14.7679 27.6732 1.53343 -1.48842
lowerback 27.5951 0.708395 -1.7299
upperback 2.73446 0.851537 3.37715
thorax -12.3779 0.590749 4.5598
lowerneck -24.2119 1.05229 -0.591904
upperneck 13.6753 2.17958 -2.83764
head 8.20863 0.685024 -0.569129
rclavicle -7.95139e-015 1.31198e-014
rhumerus -23.4747 -10.9863 -74.7945
rradius 33.3714
rwrist 24.8051
rhand -21.3353 -26.2353
rfingers 7.12502
rthumb 5.05062 -56.1551
lclavicle -7.95139e-015 1.31198e-014
lhumerus -21.7906 -2.77185 81.4024
lradius 25.3905
lwrist 17.5725
lhand -29.8142 -6.74957
lfingers 7.12502
lthumb -3.13807 23.2071
rfemur -73.3056 -2.27089 22.4153
rtibia 82.4344
rfoot -32.6048 -16.7031
rtoes -4.09891
lfemur -72.3294 4.98904 -19.4278
ltibia 81.6025
lfoot -30.321 18.4349
ltoes -12.6257
144
root 0.243073 14.41 -14.6402 27.1545 1.60766 -1.45639
lowerback 27.1542 0.678831 -1.74313
upperback 2.61921 0.812848 3.37408
thorax -12.2751 0.573954 4.57299
lowerneck -24.0387 1.04343 -0.615916
upperneck 14.32 2.17505 -2.74551
head 8.39868 0.683266 -0.535074
rclavicle -1.11319e-014 -2.38542e-014
rhumerus -22.1028 -9.683 -75.456
rradius 34.8022
rwrist 23.7937
rhand -21.6348 -26.2892
rfingers 7.12502
rthumb 4.76144 -56.2157
lclavicle -1.11319e-014 -2.38542e-014
lhumerus -20.4666 -4.27893 81.6531
lradius 27.1186
lwrist 19.6035
lhand -30.028 -6.75333
lfingers 7.12502
lthumb -3.34451 23.2002
rfemur -71.2277 -2.49996 22.4414
rtibia 80.8709
rfoot -32.4258 -16.6098
rtoes -4.77722
lfemur -70.2443 5.02517 -19.3398
ltibia 79.9843
lfoot -30.1336 18.2767
ltoes -13.1746
145
root 0.240593 14.5635 -14.5058 26.5541 1.70649 -1.40267
lowerback 26.7029 0.635863 -1.76054
upperback 2.54073 0.754607 3.36872
thorax -12.1208 0.546652 4.59164
lowerneck -23.7765 1.02975 -0.645508
upperneck 14.9263 2.15979 -2.64114
head 8.56097 0.679066 -0.497544
rclavicle -1.31198e-014 1.39149e-014
rhumerus -20.7526 -8.35365 -76.0672
rradius 36.0855
rwrist 22.9574
rhand -21.9349 -26.3525
rfingers 7.12502
rthumb 4.47163 -56.2853
lclavicle -1.31198e-014 1.39149e-014
lhumerus -19.1664 -5.69345 81.8207
lradius 28.7382
lwrist 21.3394
lhand -29.9733 -6.4766
lfingers 7.12502
lthumb -3.29169 23.4777
rfemur -68.9716 -2.76097 22.4513
rtibia 79.1896
rfoot -32.2294 -16.4987
rtoes -5.31335
lfemur -67.9824 5.0433 -19.2636
ltibia 78.2335
lfoot -29.9012 18.0683
ltoes -13.638
146
root 0.23811 14.7254 -14.3648 25.8775 1.82458 -1.33207
lowerback 26.2288 0.58069 -1.7801
upperback 2.50448 0.678255 3.3563
thorax -11.9026 0.508759 4.60784
lowerneck -23.4132 1.00883 -0.677161
upperneck 15.4762 2.1284 -2.52452
head 8.68673 0.670434 -0.457907
rclavicle -9.14409e-015 -3.97569e-015
rhumerus -19.3983 -7.05581 -76.631
rradius 37.1606
rwrist 22.4065
rhand -22.178 -26.4484
rfingers 7.12502
rthumb 4.23693 -56.386
lclavicle -9.14409e-015 -3.97569e-015
lhumerus -17.8946 -7.00415 81.913
lradius 30.2274
lwrist 22.7001
lhand -29.7081 -6.04321
lfingers 7.12502
lthumb -3.03553 23.9149
rfemur -66.5472 -3.04326 22.4427
rtibia 77.391
rfoot -31.984 -16.3821
rtoes -5.77371
lfemur -65.5544 5.04393 -19.1965
ltibia 76.3539
lfoot -29.6052 17.8128
ltoes -14.0368
147
root 0.235557 14.8948 -14.2176 25.1342 1.95315 -1.24652
lowerback 25.7211 0.515975 -1.80744
upperback 2.51379 0.585257 3.33324
thorax -11.6115 0.460747 4.61963
lowerneck -22.9475 0.980467 -0.70083
upperneck 15.9604 2.07938 -2.40722
head 8.77224 0.656063 -0.422007
rclavicle 5.96354e-015 1.98785e-015
rhumerus -18.0369 -5.83723 -77.157
rradius 38.0117
rwrist 22.1451
rhand -22.3332 -26.5765
rfingers 7.12502
rthumb 4.08702 -56.5171
lclavicle 5.96354e-015 1.98785e-015
lhumerus -16.6519 -8.18894 81.9384
lradius 31.5813
lwrist 23.6324
lhand -29.3434 -5.57536
lfingers 7.12502
lthumb -2.68334 24.3875
rfemur -63.9782 -3.33421 22.409
rtibia 75.4829
rfoot -31.6408 -16.2679
rtoes -6.25175
lfemur -62.9829 5.03102 -19.1395
ltibia 74.3573
lfoot -29.2085 17.5125
ltoes -14.4153
148
root 0.232944 15.0705 -14.0647 24.3305 2.08031 -1.15684
lowerback 25.1738 0.446603 -1.84274
upperback 2.56815 0.482299 3.30017
thorax -11.2462 0.405568 4.62508
lowerneck -22.376 0.948454 -0.706206
upperneck 16.3817 2.01858 -2.30663
head 8.81775 0.637277 -0.396703
rclavicle -1.15295e-014 -1.59028e-014
rhumerus -16.6902 -4.73735 -77.6564
rradius 38.6543
rwrist 22.1011
rhand -22.3899 -26.7245
rfingers 7.12502
rthumb 4.03223 -56.666
lclavicle -1.15295e-014 -1.59028e-014
lhumerus -15.449 -9.27279 81.9193
lradius 32.7948
lwrist 24.2206
lhand -28.9807 -5.22412
lfingers 7.12502
lthumb -2.33312 24.7429
rfemur -61.2864 -3.61846 22.3542
rtibia 73.4812
rfoot -31.1641 -16.145
rtoes -6.80052
lfemur -60.2914 5.01916 -19.087
ltibia 72.2645
lfoot -28.6893 17.1598
ltoes -14.7857
